<svg width="32" height="32" xmlns="http://www.w3.org/2000/svg">

 <title/>
 <g>
  <title>background</title>
  <rect fill="none" id="canvas_background" height="402" width="582" y="-1" x="-1"/>
 </g>
 <g>
  <title>Layer 1</title>
  <path fill="#878787" id="svg_1" d="m5.39,5.39a15,15 0 1 0 21.21,0a15,15 0 0 0 -21.21,0zm15.56,8.49l-2.12,2.12l2.12,2.12a2,2 0 0 1 -2.83,2.83l-2.12,-2.12l-2.12,2.12a2,2 0 0 1 -2.83,-2.83l2.12,-2.12l-2.12,-2.12a2,2 0 1 1 2.83,-2.83l2.12,2.12l2.12,-2.12a2,2 0 0 1 2.83,2.83z" class="cls-1"/>
 </g>
</svg>